# 3ds Max Wavefront OBJ Exporter v0.97b - (c)2007 guruware
# File Created: 23.05.2017 13:36:08

mtllib tetra.mtl

#
# object VIFS001
#

v  0.0000 -0.0000 1.1055
v  0.3316 -0.7857 0.7035
v  0.8528 -0.0000 0.7035
v  -0.7107 0.4714 0.7035
v  -0.5685 0.9428 -0.1005
v  -1.0897 0.1571 -0.1005
v  0.9949 0.4714 -0.1005
v  0.6159 0.1571 -0.9045
v  0.2843 0.9428 -0.5025
v  -0.0474 -1.0999 -0.1005
v  -0.7580 -0.6285 -0.5025
v  0.0948 -0.6285 -0.9045
# 12 vertices

vn 0.4103 -0.2722 0.8704
vn -0.8206 0.5443 0.1741
vn 0.6565 0.5443 -0.5222
vn -0.2462 -0.8165 -0.5222
# 4 vertex normals

g VIFS001
usemtl VMtl001
s 1
f 1//1 2//1 3//1 
f 4//2 5//2 6//2 
f 7//3 8//3 9//3 
f 10//4 11//4 12//4 
# 0 polygons - 4 triangles

#
# object VIFS002
#

v  -0.7107 0.4714 0.7035
v  0.0000 -0.0000 1.1055
v  0.8528 -0.0000 0.7035
v  -0.5685 0.9428 -0.1005
v  0.2843 0.9428 -0.5025
v  0.9949 0.4714 -0.1005
v  -1.0897 0.1571 -0.1005
v  -0.7580 -0.6285 -0.5025
v  -0.0474 -1.0999 -0.1005
v  0.3316 -0.7857 0.7035
v  0.0948 -0.6285 -0.9045
v  0.6159 0.1571 -0.9045
# 12 vertices

vn 0.2462 0.8165 0.5222
vn -0.6565 -0.5443 0.5222
vn 0.8206 -0.5443 -0.1741
vn -0.4103 0.2722 -0.8704
# 4 vertex normals

g VIFS002
usemtl VMtl002
s 1
f 13//5 14//5 15//5 
s 2
f 16//5 13//5 15//5 
s 4
f 17//5 16//5 15//5 
s 8
f 15//5 18//5 17//5 
s 4
f 13//6 19//6 20//6 
s 8
f 13//6 20//6 21//6 
s 16
f 13//6 21//6 22//6 
s 32
f 14//6 13//6 22//6 
s 1
f 22//7 21//7 23//7 
s 2
f 22//7 23//7 24//7 
s 64
f 15//7 22//7 24//7 
s 16
f 15//7 24//7 18//7 
s 1
f 20//8 19//8 16//8 
s 16
f 23//8 20//8 16//8 
s 8
f 24//8 23//8 16//8 
s 32
f 16//8 17//8 24//8 
# 0 polygons - 16 triangles

#
# object VILS001
#

v  0.3473 0.0006 0.7608
v  0.3464 -0.0019 0.7595
v  -0.3668 0.4712 0.3560
v  -0.3659 0.4736 0.3574
v  0.3454 -0.0012 0.7621
v  -0.3678 0.4719 0.3587
v  1.1992 -0.0013 0.3595
v  1.1965 -0.0018 0.3587
v  1.3391 0.4713 -0.4481
v  1.3419 0.4718 -0.4474
v  1.1972 0.0006 0.3602
v  1.3398 0.4737 -0.4466
v  0.6763 -0.7838 0.3595
v  0.6789 -0.7850 0.3587
v  0.2985 -1.1004 -0.4481
v  0.2960 -1.0992 -0.4474
v  0.6770 -0.7865 0.3602
v  0.2966 -1.1019 -0.4466
v  -0.7467 0.1579 -0.4453
v  -0.7447 0.1594 -0.4466
v  -0.4118 -0.6290 -0.8500
v  -0.4139 -0.6306 -0.8487
v  -0.7442 0.1583 -0.4439
v  -0.4114 -0.6302 -0.8474
v  -0.2242 0.9428 -0.4437
v  -0.2253 0.9414 -0.4460
v  0.6305 0.9414 -0.8494
v  0.6316 0.9428 -0.8472
v  -0.2253 0.9443 -0.4460
v  0.6305 0.9443 -0.8494
v  0.9605 0.1595 -1.2500
v  0.9626 0.1581 -1.2514
v  0.4396 -0.6304 -1.2514
v  0.4375 -0.6290 -1.2500
v  0.9626 0.1581 -1.2485
v  0.4396 -0.6304 -1.2485
# 36 vertices

vn 0.8781 0.4160 0.2365
vn 0.4442 -0.7939 -0.4153
vn -0.3920 -0.2392 -0.8883
vn 0.0418 0.9707 -0.2365
vn -0.0679 -0.4542 0.8883
vn -0.9041 0.1005 0.4153
vn 0.7130 -0.5175 0.4731
vn -0.6593 -0.7456 0.0967
vn -0.4921 -0.1909 -0.8494
vn 0.8803 0.0372 -0.4731
vn -0.3045 0.4311 0.8494
vn -0.1373 0.9858 -0.0967
vn -0.3081 0.8254 0.4731
vn 0.9616 0.2569 0.0967
vn 0.5156 -0.1129 -0.8494
vn -0.7541 0.4556 -0.4731
vn 0.0155 -0.5276 0.8494
vn -0.4305 -0.8974 -0.0967
vn -0.9617 0.1387 0.2365
vn 0.0687 0.9071 -0.4153
vn 0.4589 -0.0174 -0.8883
vn -0.5714 -0.7858 -0.2365
vn 0.3076 0.3410 0.8883
vn 0.6979 -0.5835 0.4153
vn -0.1470 -0.0000 0.9891
vn -0.6791 -0.7206 -0.1398
vn 0.3243 -0.7206 -0.6128
vn 0.8565 -0.0000 0.5161
vn -0.6791 0.7206 -0.1398
vn 0.3243 0.7206 -0.6128
vn -0.3868 0.9222 0.0000
vn 0.6533 0.2323 -0.7206
vn 0.0401 -0.6922 -0.7206
vn -1.0000 -0.0023 0.0000
vn 0.6533 0.2323 0.7206
vn 0.0401 -0.6922 0.7206
# 36 vertex normals

g VILS001
usemtl VMtl003
s 1
f 25//9 26//10 27//11 28//12 
f 26//10 29//13 30//14 27//11 
f 29//13 25//9 28//12 30//14 
f 25//9 29//13 26//10 
f 30//14 28//12 27//11 
f 31//15 32//16 33//17 34//18 
f 32//16 35//19 36//20 33//17 
f 35//19 31//15 34//18 36//20 
f 31//15 35//19 32//16 
f 36//20 34//18 33//17 
f 37//21 38//22 39//23 40//24 
f 38//22 41//25 42//26 39//23 
f 41//25 37//21 40//24 42//26 
f 37//21 41//25 38//22 
f 42//26 40//24 39//23 
f 43//27 44//28 45//29 46//30 
f 44//28 47//31 48//32 45//29 
f 47//31 43//27 46//30 48//32 
f 43//27 47//31 44//28 
f 48//32 46//30 45//29 
f 49//33 50//34 51//35 52//36 
f 50//34 53//37 54//38 51//35 
f 53//37 49//33 52//36 54//38 
f 49//33 53//37 50//34 
f 54//38 52//36 51//35 
f 55//39 56//40 57//41 58//42 
f 56//40 59//43 60//44 57//41 
f 59//43 55//39 58//42 60//44 
f 55//39 59//43 56//40 
f 60//44 58//42 57//41 
# 18 polygons - 12 triangles

