# 3ds Max Wavefront OBJ Exporter v0.97b - (c)2007 guruware
# File Created: 23.05.2017 13:38:08

mtllib Cubocaedro.mtl

#
# object VIFS001
#

v  0.0000 -0.0000 1.1547
v  1.0000 -0.0000 0.5774
v  0.3333 0.9428 0.5774
v  -1.0000 -0.0000 0.5774
v  -0.3333 -0.9428 0.5774
v  0.6667 -0.9428 -0.0000
v  1.0000 0.0000 -0.5774
v  0.3333 0.9428 -0.5774
v  -0.6667 0.9428 0.0000
v  -1.0000 0.0000 -0.5774
v  -0.3333 -0.9428 -0.5774
v  0.0000 0.0000 -1.1547
# 12 vertices

vn 0.4714 0.3333 0.8165
vn -0.4714 -0.3333 0.8165
vn 0.9428 -0.3333 -0.0000
vn 0.0000 1.0000 0.0000
vn -0.9428 0.3333 0.0000
vn 0.0000 -1.0000 -0.0000
vn 0.4714 0.3333 -0.8165
vn -0.4714 -0.3333 -0.8165
# 8 vertex normals

g VIFS001
usemtl VMtl001
s 1
f 1//1 2//1 3//1 
s 2
f 1//2 4//2 5//2 
f 2//3 6//3 7//3 
f 3//4 8//4 9//4 
s 1
f 4//5 9//5 10//5 
f 5//6 11//6 6//6 
f 7//7 12//7 8//7 
s 2
f 10//8 12//8 11//8 
# 0 polygons - 8 triangles

#
# object VIFS002
#

v  -1.0000 -0.0000 0.5774
v  0.0000 -0.0000 1.1547
v  0.3333 0.9428 0.5774
v  -0.6667 0.9428 0.0000
v  1.0000 -0.0000 0.5774
v  -0.3333 -0.9428 0.5774
v  0.6667 -0.9428 -0.0000
v  1.0000 0.0000 -0.5774
v  0.3333 0.9428 -0.5774
v  -1.0000 0.0000 -0.5774
v  -0.3333 -0.9428 -0.5774
v  0.0000 0.0000 -1.1547
# 12 vertices

vn -0.4082 0.5774 0.7071
vn 0.4082 -0.5774 0.7071
vn 0.8165 0.5774 0.0000
vn -0.8165 -0.5774 -0.0000
vn 0.4082 -0.5774 -0.7071
vn -0.4082 0.5774 -0.7071
# 6 vertex normals

g VIFS002
usemtl VMtl002
s 1
f 13//9 14//9 15//9 
s 2
f 15//9 16//9 13//9 
f 17//10 14//10 18//10 
s 1
f 18//10 19//10 17//10 
s 4
f 17//11 20//11 21//11 
s 8
f 17//11 21//11 15//11 
s 4
f 13//12 22//12 23//12 
s 8
f 13//12 23//12 18//12 
s 1
f 23//13 24//13 20//13 
s 2
f 20//13 19//13 23//13 
f 21//14 24//14 22//14 
s 1
f 16//14 21//14 22//14 
# 0 polygons - 12 triangles

